<svg width="41" height="40" viewBox="0 0 41 40" fill="none" xmlns="http://www.w3.org/2000/svg">
<circle cx="20.5" cy="20" r="20" fill="#D9F99D"/>
<path d="M10.954 12.7443C10.4082 11.7599 10.7638 10.5195 11.7482 9.97375L12.4612 9.57848C13.4456 9.03273 14.686 9.38832 15.2318 10.3727L25.6076 29.088L21.3298 31.4596L10.954 12.7443Z" fill="#3F6212"/>
<path d="M21.5508 31.732L23.5913 30.6095L25.7066 29.429L25.902 34.7773L21.5508 31.732Z" fill="#3F6212"/>
<line x1="13.7346" y1="14.8504" x2="22.4913" y2="30.6453" stroke="#373737" stroke-width="0.188124"/>
<line x1="14.7217" y1="14.303" x2="23.4784" y2="30.0979" stroke="#373737" stroke-width="0.188124"/>
<line x1="15.709" y1="13.7559" x2="24.4657" y2="29.5508" stroke="#373737" stroke-width="0.188124"/>
<path d="M20.0896 17.1086H23.6772L21.7863 18.0105C21.5003 18.1469 21.2676 18.374 21.1242 18.6566L20.0896 20.6963V17.1086Z" fill="#8EA388"/>
<path d="M20.0896 17.1086H16.502L18.3929 18.0105C18.6789 18.1469 18.9116 18.374 19.055 18.6566L20.0896 20.6963V17.1086Z" fill="#8EA388"/>
<path d="M20.0896 17.1086H23.6772L21.7863 16.2068C21.5003 16.0704 21.2676 15.8433 21.1242 15.5607L20.0896 13.521V17.1086Z" fill="#8EA388"/>
<path d="M20.0896 17.1086H16.502L18.3929 16.2068C18.6789 16.0704 18.9116 15.8433 19.055 15.5607L20.0896 13.521V17.1086Z" fill="#8EA388"/>
<path d="M27.2649 13.2451H30.8525L28.9616 14.1469C28.6756 14.2833 28.4428 14.5105 28.2995 14.793L27.2649 16.8328V13.2451Z" fill="#8EA388"/>
<path d="M27.2649 13.2451H23.6773L25.5682 14.1469C25.8541 14.2833 26.0869 14.5105 26.2303 14.793L27.2649 16.8328V13.2451Z" fill="#8EA388"/>
<path d="M27.2649 13.2451H30.8525L28.9616 12.3433C28.6756 12.2069 28.4428 11.9797 28.2995 11.6972L27.2649 9.65748V13.2451Z" fill="#8EA388"/>
<path d="M27.2649 13.2451H23.6773L25.5682 12.3433C25.8541 12.2069 26.0869 11.9797 26.2303 11.6972L27.2649 9.65748V13.2451Z" fill="#8EA388"/>
<path d="M21.7454 7.72559H25.333L23.4421 8.62742C23.1561 8.7638 22.9233 8.99097 22.78 9.27352L21.7454 11.3132V7.72559Z" fill="#8EA388"/>
<path d="M21.7454 7.72559H18.1577L20.0487 8.62742C20.3346 8.7638 20.5674 8.99097 20.7107 9.27352L21.7454 11.3132V7.72559Z" fill="#8EA388"/>
<path d="M21.7454 7.72559H25.333L23.4421 6.82376C23.1561 6.68738 22.9233 6.4602 22.78 6.17765L21.7454 4.13795V7.72559Z" fill="#8EA388"/>
<path d="M21.7454 7.72559H18.1577L20.0487 6.82376C20.3346 6.68738 20.5674 6.4602 20.7107 6.17765L21.7454 4.13795V7.72559Z" fill="#8EA388"/>
</svg>
